<svg id="visual" viewBox="0 0 960 300" width="960" height="300" xmlns="http://www.w3.org/2000/svg" xmlns:xlink="http://www.w3.org/1999/xlink" version="1.1"><rect x="0" y="0" width="960" height="300" fill="#010026"></rect><path d="M0 175L137 200L274 186L411 196L549 216L686 200L823 186L960 211L960 301L823 301L686 301L549 301L411 301L274 301L137 301L0 301Z" fill="#010026"></path><path d="M0 233L137 222L274 218L411 219L549 220L686 202L823 204L960 201L960 301L823 301L686 301L549 301L411 301L274 301L137 301L0 301Z" fill="#2b1b4a"></path><path d="M0 237L137 251L274 240L411 225L549 255L686 237L823 233L960 242L960 301L823 301L686 301L549 301L411 301L274 301L137 301L0 301Z" fill="#602a6b"></path><path d="M0 266L137 247L274 248L411 270L549 254L686 262L823 241L960 250L960 301L823 301L686 301L549 301L411 301L274 301L137 301L0 301Z" fill="#9c3784"></path><path d="M0 270L137 269L274 282L411 275L549 264L686 273L823 263L960 282L960 301L823 301L686 301L549 301L411 301L274 301L137 301L0 301Z" fill="#dc4492"></path></svg>