<svg id="visual" viewBox="0 0 960 75" width="960" height="75" xmlns="http://www.w3.org/2000/svg" xmlns:xlink="http://www.w3.org/1999/xlink" version="1.1"><rect x="0" y="0" width="960" height="75" fill="#242629"></rect><path d="M0 18L22.8 19.8C45.7 21.7 91.3 25.3 137 25.5C182.7 25.7 228.3 22.3 274 21C319.7 19.7 365.3 20.3 411.2 22C457 23.7 503 26.3 548.8 27.7C594.7 29 640.3 29 686 28C731.7 27 777.3 25 823 23.2C868.7 21.3 914.3 19.7 937.2 18.8L960 18L960 0L937.2 0C914.3 0 868.7 0 823 0C777.3 0 731.7 0 686 0C640.3 0 594.7 0 548.8 0C503 0 457 0 411.2 0C365.3 0 319.7 0 274 0C228.3 0 182.7 0 137 0C91.3 0 45.7 0 22.8 0L0 0Z" fill="#242629"></path><path d="M0 22L22.8 21.3C45.7 20.7 91.3 19.3 137 18.8C182.7 18.3 228.3 18.7 274 18.5C319.7 18.3 365.3 17.7 411.2 18C457 18.3 503 19.7 548.8 20.3C594.7 21 640.3 21 686 20.8C731.7 20.7 777.3 20.3 823 19.8C868.7 19.3 914.3 18.7 937.2 18.3L960 18L960 0L937.2 0C914.3 0 868.7 0 823 0C777.3 0 731.7 0 686 0C640.3 0 594.7 0 548.8 0C503 0 457 0 411.2 0C365.3 0 319.7 0 274 0C228.3 0 182.7 0 137 0C91.3 0 45.7 0 22.8 0L0 0Z" fill="#21395b"></path><path d="M0 17L22.8 16C45.7 15 91.3 13 137 13.3C182.7 13.7 228.3 16.3 274 16.5C319.7 16.7 365.3 14.3 411.2 13.2C457 12 503 12 548.8 11.7C594.7 11.3 640.3 10.7 686 10.7C731.7 10.7 777.3 11.3 823 12.2C868.7 13 914.3 14 937.2 14.5L960 15L960 0L937.2 0C914.3 0 868.7 0 823 0C777.3 0 731.7 0 686 0C640.3 0 594.7 0 548.8 0C503 0 457 0 411.2 0C365.3 0 319.7 0 274 0C228.3 0 182.7 0 137 0C91.3 0 45.7 0 22.8 0L0 0Z" fill="#244a90"></path><path d="M0 6L22.8 7C45.7 8 91.3 10 137 10.7C182.7 11.3 228.3 10.7 274 9.8C319.7 9 365.3 8 411.2 8.3C457 8.7 503 10.3 548.8 11.3C594.7 12.3 640.3 12.7 686 12.2C731.7 11.7 777.3 10.3 823 9.2C868.7 8 914.3 7 937.2 6.5L960 6L960 0L937.2 0C914.3 0 868.7 0 823 0C777.3 0 731.7 0 686 0C640.3 0 594.7 0 548.8 0C503 0 457 0 411.2 0C365.3 0 319.7 0 274 0C228.3 0 182.7 0 137 0C91.3 0 45.7 0 22.8 0L0 0Z" fill="#4656c3"></path><path d="M0 6L22.8 5.5C45.7 5 91.3 4 137 4.2C182.7 4.3 228.3 5.7 274 5.8C319.7 6 365.3 5 411.2 5C457 5 503 6 548.8 6C594.7 6 640.3 5 686 5.2C731.7 5.3 777.3 6.7 823 6.8C868.7 7 914.3 6 937.2 5.5L960 5L960 0L937.2 0C914.3 0 868.7 0 823 0C777.3 0 731.7 0 686 0C640.3 0 594.7 0 548.8 0C503 0 457 0 411.2 0C365.3 0 319.7 0 274 0C228.3 0 182.7 0 137 0C91.3 0 45.7 0 22.8 0L0 0Z" fill="#7f5af0"></path></svg>