<svg id="visual" viewBox="0 0 960 300" width="960" height="300" xmlns="http://www.w3.org/2000/svg" xmlns:xlink="http://www.w3.org/1999/xlink" version="1.1"><rect x="0" y="0" width="960" height="300" fill="#010026"></rect><path d="M0 199L22.8 197.7C45.7 196.3 91.3 193.7 137 195C182.7 196.3 228.3 201.7 274 204C319.7 206.3 365.3 205.7 411.2 207.7C457 209.7 503 214.3 548.8 216.5C594.7 218.7 640.3 218.3 686 212.8C731.7 207.3 777.3 196.7 823 191.3C868.7 186 914.3 186 937.2 186L960 186L960 301L937.2 301C914.3 301 868.7 301 823 301C777.3 301 731.7 301 686 301C640.3 301 594.7 301 548.8 301C503 301 457 301 411.2 301C365.3 301 319.7 301 274 301C228.3 301 182.7 301 137 301C91.3 301 45.7 301 22.8 301L0 301Z" fill="#010026"></path><path d="M0 221L22.8 218.2C45.7 215.3 91.3 209.7 137 206.7C182.7 203.7 228.3 203.3 274 203.2C319.7 203 365.3 203 411.2 204.8C457 206.7 503 210.3 548.8 210.8C594.7 211.3 640.3 208.7 686 209.7C731.7 210.7 777.3 215.3 823 216.8C868.7 218.3 914.3 216.7 937.2 215.8L960 215L960 301L937.2 301C914.3 301 868.7 301 823 301C777.3 301 731.7 301 686 301C640.3 301 594.7 301 548.8 301C503 301 457 301 411.2 301C365.3 301 319.7 301 274 301C228.3 301 182.7 301 137 301C91.3 301 45.7 301 22.8 301L0 301Z" fill="#0e2e55"></path><path d="M0 253L22.8 250.7C45.7 248.3 91.3 243.7 137 243.7C182.7 243.7 228.3 248.3 274 246.2C319.7 244 365.3 235 411.2 235.2C457 235.3 503 244.7 548.8 245.5C594.7 246.3 640.3 238.7 686 233.2C731.7 227.7 777.3 224.3 823 226.2C868.7 228 914.3 235 937.2 238.5L960 242L960 301L937.2 301C914.3 301 868.7 301 823 301C777.3 301 731.7 301 686 301C640.3 301 594.7 301 548.8 301C503 301 457 301 411.2 301C365.3 301 319.7 301 274 301C228.3 301 182.7 301 137 301C91.3 301 45.7 301 22.8 301L0 301Z" fill="#195987"></path><path d="M0 252L22.8 252.5C45.7 253 91.3 254 137 252.5C182.7 251 228.3 247 274 249.5C319.7 252 365.3 261 411.2 260.7C457 260.3 503 250.7 548.8 250.3C594.7 250 640.3 259 686 260C731.7 261 777.3 254 823 251.2C868.7 248.3 914.3 249.7 937.2 250.3L960 251L960 301L937.2 301C914.3 301 868.7 301 823 301C777.3 301 731.7 301 686 301C640.3 301 594.7 301 548.8 301C503 301 457 301 411.2 301C365.3 301 319.7 301 274 301C228.3 301 182.7 301 137 301C91.3 301 45.7 301 22.8 301L0 301Z" fill="#2089b9"></path><path d="M0 269L22.8 268.7C45.7 268.3 91.3 267.7 137 268.2C182.7 268.7 228.3 270.3 274 271.8C319.7 273.3 365.3 274.7 411.2 275.7C457 276.7 503 277.3 548.8 275.7C594.7 274 640.3 270 686 268C731.7 266 777.3 266 823 266C868.7 266 914.3 266 937.2 266L960 266L960 301L937.2 301C914.3 301 868.7 301 823 301C777.3 301 731.7 301 686 301C640.3 301 594.7 301 548.8 301C503 301 457 301 411.2 301C365.3 301 319.7 301 274 301C228.3 301 182.7 301 137 301C91.3 301 45.7 301 22.8 301L0 301Z" fill="#2cbce9"></path></svg>