<svg id="visual" viewBox="0 0 960 75" width="960" height="75" xmlns="http://www.w3.org/2000/svg" xmlns:xlink="http://www.w3.org/1999/xlink" version="1.1"><rect x="0" y="0" width="960" height="75" fill="#242629"></rect><path d="M0 45L22.8 45.5C45.7 46 91.3 47 137 48.2C182.7 49.3 228.3 50.7 274 50.3C319.7 50 365.3 48 411.2 48C457 48 503 50 548.8 51.3C594.7 52.7 640.3 53.3 686 53.8C731.7 54.3 777.3 54.7 823 53C868.7 51.3 914.3 47.7 937.2 45.8L960 44L960 76L937.2 76C914.3 76 868.7 76 823 76C777.3 76 731.7 76 686 76C640.3 76 594.7 76 548.8 76C503 76 457 76 411.2 76C365.3 76 319.7 76 274 76C228.3 76 182.7 76 137 76C91.3 76 45.7 76 22.8 76L0 76Z" fill="#242629"></path><path d="M0 54L22.8 54.5C45.7 55 91.3 56 137 56.7C182.7 57.3 228.3 57.7 274 56.7C319.7 55.7 365.3 53.3 411.2 53C457 52.7 503 54.3 548.8 54.5C594.7 54.7 640.3 53.3 686 53.5C731.7 53.7 777.3 55.3 823 56.3C868.7 57.3 914.3 57.7 937.2 57.8L960 58L960 76L937.2 76C914.3 76 868.7 76 823 76C777.3 76 731.7 76 686 76C640.3 76 594.7 76 548.8 76C503 76 457 76 411.2 76C365.3 76 319.7 76 274 76C228.3 76 182.7 76 137 76C91.3 76 45.7 76 22.8 76L0 76Z" fill="#21395b"></path><path d="M0 60L22.8 59.3C45.7 58.7 91.3 57.3 137 56.7C182.7 56 228.3 56 274 56C319.7 56 365.3 56 411.2 56C457 56 503 56 548.8 56.2C594.7 56.3 640.3 56.7 686 57.2C731.7 57.7 777.3 58.3 823 58C868.7 57.7 914.3 56.3 937.2 55.7L960 55L960 76L937.2 76C914.3 76 868.7 76 823 76C777.3 76 731.7 76 686 76C640.3 76 594.7 76 548.8 76C503 76 457 76 411.2 76C365.3 76 319.7 76 274 76C228.3 76 182.7 76 137 76C91.3 76 45.7 76 22.8 76L0 76Z" fill="#244a90"></path><path d="M0 66L22.8 64.8C45.7 63.7 91.3 61.3 137 61.2C182.7 61 228.3 63 274 64C319.7 65 365.3 65 411.2 64.3C457 63.7 503 62.3 548.8 61.8C594.7 61.3 640.3 61.7 686 61.5C731.7 61.3 777.3 60.7 823 60.5C868.7 60.3 914.3 60.7 937.2 60.8L960 61L960 76L937.2 76C914.3 76 868.7 76 823 76C777.3 76 731.7 76 686 76C640.3 76 594.7 76 548.8 76C503 76 457 76 411.2 76C365.3 76 319.7 76 274 76C228.3 76 182.7 76 137 76C91.3 76 45.7 76 22.8 76L0 76Z" fill="#4656c3"></path><path d="M0 70L22.8 69.5C45.7 69 91.3 68 137 68C182.7 68 228.3 69 274 69.2C319.7 69.3 365.3 68.7 411.2 68.2C457 67.7 503 67.3 548.8 67.7C594.7 68 640.3 69 686 69.3C731.7 69.7 777.3 69.3 823 68.7C868.7 68 914.3 67 937.2 66.5L960 66L960 76L937.2 76C914.3 76 868.7 76 823 76C777.3 76 731.7 76 686 76C640.3 76 594.7 76 548.8 76C503 76 457 76 411.2 76C365.3 76 319.7 76 274 76C228.3 76 182.7 76 137 76C91.3 76 45.7 76 22.8 76L0 76Z" fill="#7f5af0"></path></svg>