<svg id="visual" viewBox="0 0 960 300" width="960" height="300" xmlns="http://www.w3.org/2000/svg" xmlns:xlink="http://www.w3.org/1999/xlink" version="1.1"><rect x="0" y="0" width="960" height="300" fill="#242629"></rect><path d="M0 184L22.8 186.7C45.7 189.3 91.3 194.7 137 199C182.7 203.3 228.3 206.7 274 210.7C319.7 214.7 365.3 219.3 411.2 216.8C457 214.3 503 204.7 548.8 201.5C594.7 198.3 640.3 201.7 686 199C731.7 196.3 777.3 187.7 823 187.8C868.7 188 914.3 197 937.2 201.5L960 206L960 301L937.2 301C914.3 301 868.7 301 823 301C777.3 301 731.7 301 686 301C640.3 301 594.7 301 548.8 301C503 301 457 301 411.2 301C365.3 301 319.7 301 274 301C228.3 301 182.7 301 137 301C91.3 301 45.7 301 22.8 301L0 301Z" fill="#242629"></path><path d="M0 221L22.8 218.7C45.7 216.3 91.3 211.7 137 212.5C182.7 213.3 228.3 219.7 274 221.3C319.7 223 365.3 220 411.2 216.8C457 213.7 503 210.3 548.8 210.2C594.7 210 640.3 213 686 217.2C731.7 221.3 777.3 226.7 823 226.8C868.7 227 914.3 222 937.2 219.5L960 217L960 301L937.2 301C914.3 301 868.7 301 823 301C777.3 301 731.7 301 686 301C640.3 301 594.7 301 548.8 301C503 301 457 301 411.2 301C365.3 301 319.7 301 274 301C228.3 301 182.7 301 137 301C91.3 301 45.7 301 22.8 301L0 301Z" fill="#21395b"></path><path d="M0 236L22.8 236.8C45.7 237.7 91.3 239.3 137 239.5C182.7 239.7 228.3 238.3 274 237.8C319.7 237.3 365.3 237.7 411.2 238.7C457 239.7 503 241.3 548.8 241.2C594.7 241 640.3 239 686 236.8C731.7 234.7 777.3 232.3 823 234.3C868.7 236.3 914.3 242.7 937.2 245.8L960 249L960 301L937.2 301C914.3 301 868.7 301 823 301C777.3 301 731.7 301 686 301C640.3 301 594.7 301 548.8 301C503 301 457 301 411.2 301C365.3 301 319.7 301 274 301C228.3 301 182.7 301 137 301C91.3 301 45.7 301 22.8 301L0 301Z" fill="#244a90"></path><path d="M0 241L22.8 242C45.7 243 91.3 245 137 246.8C182.7 248.7 228.3 250.3 274 249.2C319.7 248 365.3 244 411.2 242.3C457 240.7 503 241.3 548.8 243.5C594.7 245.7 640.3 249.3 686 252.8C731.7 256.3 777.3 259.7 823 261.8C868.7 264 914.3 265 937.2 265.5L960 266L960 301L937.2 301C914.3 301 868.7 301 823 301C777.3 301 731.7 301 686 301C640.3 301 594.7 301 548.8 301C503 301 457 301 411.2 301C365.3 301 319.7 301 274 301C228.3 301 182.7 301 137 301C91.3 301 45.7 301 22.8 301L0 301Z" fill="#4656c3"></path><path d="M0 285L22.8 281.8C45.7 278.7 91.3 272.3 137 272.3C182.7 272.3 228.3 278.7 274 278.5C319.7 278.3 365.3 271.7 411.2 268.3C457 265 503 265 548.8 267.5C594.7 270 640.3 275 686 275.5C731.7 276 777.3 272 823 269.2C868.7 266.3 914.3 264.7 937.2 263.8L960 263L960 301L937.2 301C914.3 301 868.7 301 823 301C777.3 301 731.7 301 686 301C640.3 301 594.7 301 548.8 301C503 301 457 301 411.2 301C365.3 301 319.7 301 274 301C228.3 301 182.7 301 137 301C91.3 301 45.7 301 22.8 301L0 301Z" fill="#7f5af0"></path></svg>