<svg id="visual" viewBox="0 0 960 300" width="960" height="300" xmlns="http://www.w3.org/2000/svg" xmlns:xlink="http://www.w3.org/1999/xlink" version="1.1"><rect x="0" y="0" width="960" height="300" fill="#010026"></rect><path d="M0 190L22.8 193C45.7 196 91.3 202 137 204.7C182.7 207.3 228.3 206.7 274 205C319.7 203.3 365.3 200.7 411.2 198.3C457 196 503 194 548.8 194.5C594.7 195 640.3 198 686 200.3C731.7 202.7 777.3 204.3 823 203.2C868.7 202 914.3 198 937.2 196L960 194L960 301L937.2 301C914.3 301 868.7 301 823 301C777.3 301 731.7 301 686 301C640.3 301 594.7 301 548.8 301C503 301 457 301 411.2 301C365.3 301 319.7 301 274 301C228.3 301 182.7 301 137 301C91.3 301 45.7 301 22.8 301L0 301Z" fill="#010026"></path><path d="M0 197L22.8 197.5C45.7 198 91.3 199 137 204C182.7 209 228.3 218 274 218C319.7 218 365.3 209 411.2 204.8C457 200.7 503 201.3 548.8 205C594.7 208.7 640.3 215.3 686 215.8C731.7 216.3 777.3 210.7 823 210.2C868.7 209.7 914.3 214.3 937.2 216.7L960 219L960 301L937.2 301C914.3 301 868.7 301 823 301C777.3 301 731.7 301 686 301C640.3 301 594.7 301 548.8 301C503 301 457 301 411.2 301C365.3 301 319.7 301 274 301C228.3 301 182.7 301 137 301C91.3 301 45.7 301 22.8 301L0 301Z" fill="#54214e"></path><path d="M0 247L22.8 241.8C45.7 236.7 91.3 226.3 137 221.3C182.7 216.3 228.3 216.7 274 218.5C319.7 220.3 365.3 223.7 411.2 225.2C457 226.7 503 226.3 548.8 227.7C594.7 229 640.3 232 686 231.2C731.7 230.3 777.3 225.7 823 223C868.7 220.3 914.3 219.7 937.2 219.3L960 219L960 301L937.2 301C914.3 301 868.7 301 823 301C777.3 301 731.7 301 686 301C640.3 301 594.7 301 548.8 301C503 301 457 301 411.2 301C365.3 301 319.7 301 274 301C228.3 301 182.7 301 137 301C91.3 301 45.7 301 22.8 301L0 301Z" fill="#aa415a"></path><path d="M0 246L22.8 247.8C45.7 249.7 91.3 253.3 137 255.8C182.7 258.3 228.3 259.7 274 258.3C319.7 257 365.3 253 411.2 253.7C457 254.3 503 259.7 548.8 258.7C594.7 257.7 640.3 250.3 686 248.3C731.7 246.3 777.3 249.7 823 253.3C868.7 257 914.3 261 937.2 263L960 265L960 301L937.2 301C914.3 301 868.7 301 823 301C777.3 301 731.7 301 686 301C640.3 301 594.7 301 548.8 301C503 301 457 301 411.2 301C365.3 301 319.7 301 274 301C228.3 301 182.7 301 137 301C91.3 301 45.7 301 22.8 301L0 301Z" fill="#e97c4f"></path><path d="M0 274L22.8 274.5C45.7 275 91.3 276 137 277.8C182.7 279.7 228.3 282.3 274 281.5C319.7 280.7 365.3 276.3 411.2 273.7C457 271 503 270 548.8 269.7C594.7 269.3 640.3 269.7 686 271.8C731.7 274 777.3 278 823 277.8C868.7 277.7 914.3 273.3 937.2 271.2L960 269L960 301L937.2 301C914.3 301 868.7 301 823 301C777.3 301 731.7 301 686 301C640.3 301 594.7 301 548.8 301C503 301 457 301 411.2 301C365.3 301 319.7 301 274 301C228.3 301 182.7 301 137 301C91.3 301 45.7 301 22.8 301L0 301Z" fill="#fdcc49"></path></svg>