<svg id="visual" viewBox="0 0 960 300" width="960" height="300" xmlns="http://www.w3.org/2000/svg" xmlns:xlink="http://www.w3.org/1999/xlink" version="1.1"><rect x="0" y="0" width="960" height="300" fill="#242629"></rect><path d="M0 85L22.8 90C45.7 95 91.3 105 137 108.3C182.7 111.7 228.3 108.3 274 108.7C319.7 109 365.3 113 411.2 109.3C457 105.7 503 94.3 548.8 87.3C594.7 80.3 640.3 77.7 686 84C731.7 90.3 777.3 105.7 823 113.7C868.7 121.7 914.3 122.3 937.2 122.7L960 123L960 0L937.2 0C914.3 0 868.7 0 823 0C777.3 0 731.7 0 686 0C640.3 0 594.7 0 548.8 0C503 0 457 0 411.2 0C365.3 0 319.7 0 274 0C228.3 0 182.7 0 137 0C91.3 0 45.7 0 22.8 0L0 0Z" fill="#242629"></path><path d="M0 59L22.8 62C45.7 65 91.3 71 137 75.8C182.7 80.7 228.3 84.3 274 87.3C319.7 90.3 365.3 92.7 411.2 92.8C457 93 503 91 548.8 90.5C594.7 90 640.3 91 686 88.7C731.7 86.3 777.3 80.7 823 76.8C868.7 73 914.3 71 937.2 70L960 69L960 0L937.2 0C914.3 0 868.7 0 823 0C777.3 0 731.7 0 686 0C640.3 0 594.7 0 548.8 0C503 0 457 0 411.2 0C365.3 0 319.7 0 274 0C228.3 0 182.7 0 137 0C91.3 0 45.7 0 22.8 0L0 0Z" fill="#21395b"></path><path d="M0 74L22.8 71.3C45.7 68.7 91.3 63.3 137 62.3C182.7 61.3 228.3 64.7 274 66.5C319.7 68.3 365.3 68.7 411.2 65.2C457 61.7 503 54.3 548.8 55.7C594.7 57 640.3 67 686 72.3C731.7 77.7 777.3 78.3 823 74C868.7 69.7 914.3 60.3 937.2 55.7L960 51L960 0L937.2 0C914.3 0 868.7 0 823 0C777.3 0 731.7 0 686 0C640.3 0 594.7 0 548.8 0C503 0 457 0 411.2 0C365.3 0 319.7 0 274 0C228.3 0 182.7 0 137 0C91.3 0 45.7 0 22.8 0L0 0Z" fill="#244a90"></path><path d="M0 49L22.8 48.5C45.7 48 91.3 47 137 47.8C182.7 48.7 228.3 51.3 274 51.7C319.7 52 365.3 50 411.2 46.7C457 43.3 503 38.7 548.8 38.7C594.7 38.7 640.3 43.3 686 44.5C731.7 45.7 777.3 43.3 823 40.5C868.7 37.7 914.3 34.3 937.2 32.7L960 31L960 0L937.2 0C914.3 0 868.7 0 823 0C777.3 0 731.7 0 686 0C640.3 0 594.7 0 548.8 0C503 0 457 0 411.2 0C365.3 0 319.7 0 274 0C228.3 0 182.7 0 137 0C91.3 0 45.7 0 22.8 0L0 0Z" fill="#4656c3"></path><path d="M0 24L22.8 22.7C45.7 21.3 91.3 18.7 137 20.5C182.7 22.3 228.3 28.7 274 29.8C319.7 31 365.3 27 411.2 26C457 25 503 27 548.8 26C594.7 25 640.3 21 686 21.5C731.7 22 777.3 27 823 27.7C868.7 28.3 914.3 24.7 937.2 22.8L960 21L960 0L937.2 0C914.3 0 868.7 0 823 0C777.3 0 731.7 0 686 0C640.3 0 594.7 0 548.8 0C503 0 457 0 411.2 0C365.3 0 319.7 0 274 0C228.3 0 182.7 0 137 0C91.3 0 45.7 0 22.8 0L0 0Z" fill="#7f5af0"></path></svg>